<?xml version="1.0" encoding="UTF-8" standalone="no" ?>
<!DOCTYPE svg PUBLIC "-//W3C//DTD SVG 1.1//EN" "http://www.w3.org/Graphics/SVG/1.1/DTD/svg11.dtd">
<svg xmlns="http://www.w3.org/2000/svg" xmlns:xlink="http://www.w3.org/1999/xlink" version="1.1" width="50" height="50" viewBox="0 0 50 50" xml:space="preserve">
<desc>Created with Fabric.js 5.2.4</desc>
<defs>
</defs>
<g transform="matrix(1 0 0 1 25 25)" id="67540215-bad7-4518-8f2f-637e42035eaa"  >
<rect style="stroke: none; stroke-width: 1; stroke-dasharray: none; stroke-linecap: butt; stroke-dashoffset: 0; stroke-linejoin: miter; stroke-miterlimit: 4; fill: rgb(255,255,255); fill-rule: nonzero; opacity: 1; visibility: hidden;" vector-effect="non-scaling-stroke"  x="-25" y="-25" rx="0" ry="0" width="50" height="50" />
</g>
<g transform="matrix(Infinity NaN NaN Infinity 0 0)" id="63941cda-acaa-4480-8d50-824c494cd15c"  >
</g>
<g transform="matrix(0.05 0 0 0.05 25 25)" id="3fc2c2a5-b3ab-4604-8b29-5f8edebdf7e1"  >
<path style="stroke: rgb(0,0,0); stroke-width: 0; stroke-dasharray: none; stroke-linecap: butt; stroke-dashoffset: 0; stroke-linejoin: miter; stroke-miterlimit: 4; fill: rgb(245,222,179); fill-rule: nonzero; opacity: 1;" vector-effect="non-scaling-stroke"  transform=" translate(-192, -255.34)" d="M 215.7 499.2 C 267 435 384 279.4 384 192 C 384 86 298 0 192 0 C 86 0 0 86 0 192 C 0 279.4 117 435 168.3 499.2 C 180.60000000000002 514.5 203.4 514.5 215.70000000000002 499.2 z M 192 128 C 227.34622398917077 128 256 156.6537760108292 256 192 C 256 227.34622398917077 227.3462239891708 256 192.00000000000003 256 C 156.65377601082923 256 128 227.34622398917077 128 192 C 128 156.65377601082923 156.65377601082923 128 192 128 z" stroke-linecap="round" />
</g>
</svg>