<?xml version="1.0" standalone="no"?>
<!DOCTYPE svg PUBLIC "-//W3C//DTD SVG 20010904//EN"
 "http://www.w3.org/TR/2001/REC-SVG-20010904/DTD/svg10.dtd">
<svg version="1.0" xmlns="http://www.w3.org/2000/svg"
 width="46.000000pt" height="46.000000pt" viewBox="0 0 46.000000 46.000000"
 preserveAspectRatio="xMidYMid meet">

<g transform="translate(0.000000,46.000000) scale(0.100000,-0.100000)"
fill="#000000" stroke="none">
<path d="M0 230 l0 -230 230 0 230 0 0 230 0 230 -230 0 -230 0 0 -230z m220
74 l24 -36 33 36 c18 20 39 36 45 36 6 0 1 -12 -13 -27 -56 -62 -55 -58 -10
-122 22 -33 41 -62 41 -65 0 -3 -15 -6 -32 -6 -27 0 -38 8 -62 42 l-30 41 -37
-41 c-20 -23 -42 -42 -49 -42 -6 0 7 21 29 46 23 26 41 50 41 54 0 4 -18 32
-40 63 l-39 57 37 0 c31 0 41 -6 62 -36z"/>
<path d="M167 307 c40 -65 119 -167 130 -167 8 0 -12 37 -48 90 -34 50 -69 90
-76 90 -9 0 -11 -5 -6 -13z"/>
</g>
</svg>
