<?xml version="1.0" encoding="UTF-8"?>
<svg xmlns="http://www.w3.org/2000/svg" xmlns:xlink="http://www.w3.org/1999/xlink" width="100px" height="100px" viewBox="0 0 100 100" version="1.1">
<g id="surface1">
<path style=" stroke:none;fill-rule:nonzero;fill:rgb(0%,0%,0%);fill-opacity:1;" d="M 74.375 64 L 86.613281 16.085938 L 100 16.085938 L 100 8.554688 L 80.761719 8.554688 L 77.875 19.847656 L 0 19.792969 L 8.28125 64 Z M 75.953125 27.378906 L 68.523438 56.46875 L 14.53125 56.46875 L 9.074219 27.328125 Z M 75.953125 27.378906 "/>
<path style=" stroke:none;fill-rule:nonzero;fill:rgb(0%,0%,0%);fill-opacity:1;" d="M 64.0625 91.445312 C 70.707031 91.445312 76.109375 86.046875 76.109375 79.402344 C 76.109375 72.761719 70.707031 67.359375 64.0625 67.359375 L 18.6875 67.359375 C 12.046875 67.359375 6.640625 72.761719 6.640625 79.402344 C 6.640625 86.046875 12.046875 91.445312 18.6875 91.445312 C 25.328125 91.445312 30.730469 86.046875 30.730469 79.402344 C 30.730469 77.808594 30.417969 76.285156 29.851562 74.890625 L 52.898438 74.890625 C 52.335938 76.285156 52.023438 77.808594 52.023438 79.402344 C 52.023438 86.046875 57.421875 91.445312 64.0625 91.445312 Z M 23.199219 79.402344 C 23.199219 81.890625 21.175781 83.914062 18.6875 83.914062 C 16.199219 83.914062 14.171875 81.890625 14.171875 79.402344 C 14.171875 76.914062 16.199219 74.890625 18.6875 74.890625 C 21.175781 74.890625 23.199219 76.914062 23.199219 79.402344 Z M 68.578125 79.402344 C 68.578125 81.890625 66.554688 83.914062 64.0625 83.914062 C 61.578125 83.914062 59.554688 81.890625 59.554688 79.402344 C 59.554688 76.914062 61.578125 74.890625 64.0625 74.890625 C 66.554688 74.890625 68.578125 76.914062 68.578125 79.402344 Z M 68.578125 79.402344 "/>
</g>
</svg>
