<svg xmlns="http://www.w3.org/2000/svg" xmlns:xlink="http://www.w3.org/1999/xlink" viewBox="0,0,256,256" width="40px" height="40px" fill-rule="nonzero"><g fill="none" fill-rule="nonzero" stroke="none" stroke-width="1" stroke-linecap="butt" stroke-linejoin="miter" stroke-miterlimit="10" stroke-dasharray="" stroke-dashoffset="0" font-family="none" font-weight="none" font-size="none" text-anchor="none" style="mix-blend-mode: normal"><g transform="scale(6.4,6.4)"><path d="M10,37.5c-4.136,0 -7.5,-3.364 -7.5,-7.5v-20c0,-4.136 3.364,-7.5 7.5,-7.5h20c4.136,0 7.5,3.364 7.5,7.5v20c0,4.136 -3.364,7.5 -7.5,7.5z" fill="#8c9eff"></path><path d="M30,3c3.86,0 7,3.14 7,7v20c0,3.86 -3.14,7 -7,7h-20c-3.86,0 -7,-3.14 -7,-7v-20c0,-3.86 3.14,-7 7,-7h20M30,2h-20c-4.418,0 -8,3.582 -8,8v20c0,4.418 3.582,8 8,8h20c4.418,0 8,-3.582 8,-8v-20c0,-4.418 -3.582,-8 -8,-8z" fill="#4788c7"></path><g fill="#ffffff"><path d="M30.909,11.909c0,0 -3.126,-2.446 -6.818,-2.727l-0.333,0.665c3.338,0.817 4.87,1.987 6.469,3.425c-2.758,-1.407 -5.481,-2.272 -10.227,-2.272c-4.746,0 -7.469,0.865 -10.227,2.273c1.6,-1.438 3.421,-2.737 6.469,-3.425l-0.333,-0.665c-3.873,0.366 -6.818,2.727 -6.818,2.727c0,0 -3.492,5.062 -4.091,15c3.52,4.058 8.864,4.09 8.864,4.09l1.118,-1.49c-1.897,-0.659 -4.039,-1.837 -5.89,-3.965c2.207,1.671 5.539,3.455 10.908,3.455c5.369,0 8.701,-1.784 10.909,-3.455c-1.851,2.128 -3.993,3.305 -5.89,3.965l1.117,1.49c0,0 5.344,-0.032 8.864,-4.091c-0.599,-9.937 -4.091,-15 -4.091,-15zM15.541,24.3c-1.318,0 -2.432,-1.118 -2.432,-2.624c0,-1.506 1.114,-2.838 2.432,-2.838c1.318,0 2.432,1.332 2.432,2.838c0,1.506 -1.115,2.624 -2.432,2.624zM24.459,24.3c-1.318,0 -2.432,-1.118 -2.432,-2.624c0,-1.506 1.114,-2.838 2.432,-2.838c1.318,0 2.432,1.332 2.432,2.838c0,1.506 -1.114,2.624 -2.432,2.624z"></path></g></g></g></svg>