<?xml version="1.0" standalone="no"?>
<!DOCTYPE svg PUBLIC "-//W3C//DTD SVG 20010904//EN"
 "http://www.w3.org/TR/2001/REC-SVG-20010904/DTD/svg10.dtd">
<svg version="1.0" xmlns="http://www.w3.org/2000/svg"
 width="46.000000pt" height="46.000000pt" viewBox="0 0 46.000000 46.000000"
 preserveAspectRatio="xMidYMid meet">

<g transform="translate(0.000000,46.000000) scale(0.100000,-0.100000)"
fill="#000000" stroke="none">
<path d="M0 230 l0 -230 230 0 230 0 0 230 0 230 -230 0 -230 0 0 -230z m338
118 c7 -7 12 -25 12 -40 0 -24 -4 -28 -28 -28 -16 0 -44 7 -62 17 -30 14 -36
14 -59 2 -14 -8 -30 -27 -35 -42 -8 -22 -6 -31 14 -52 13 -14 34 -25 47 -25
30 0 63 34 63 65 0 21 5 25 30 25 l31 0 -3 -77 -3 -78 -120 0 -120 0 -3 78 -3
77 33 2 33 1 -33 4 c-30 4 -33 7 -30 35 3 35 28 52 28 19 0 -14 6 -21 20 -21
15 0 20 7 20 25 0 25 1 25 78 25 47 0 83 -5 90 -12z m-68 -74 c16 -18 4 -61
-22 -77 -27 -18 -68 7 -68 41 0 15 5 33 12 40 17 17 63 15 78 -4z"/>
<path d="M292 323 c5 -26 38 -29 38 -4 0 15 -6 21 -21 21 -14 0 -19 -5 -17
-17z"/>
<path d="M202 268 c-26 -26 1 -65 38 -53 32 10 20 65 -15 65 -6 0 -16 -5 -23
-12z"/>
</g>
</svg>
