<?xml version="1.0" standalone="no"?>
<!DOCTYPE svg PUBLIC "-//W3C//DTD SVG 20010904//EN"
 "http://www.w3.org/TR/2001/REC-SVG-20010904/DTD/svg10.dtd">
<svg version="1.0" xmlns="http://www.w3.org/2000/svg"
 width="46.000000pt" height="46.000000pt" viewBox="0 0 46.000000 46.000000"
 preserveAspectRatio="xMidYMid meet">

<g transform="translate(0.000000,46.000000) scale(0.100000,-0.100000)"
fill="#000000" stroke="none">
<path d="M123 439 c-88 -44 -127 -117 -121 -224 4 -85 33 -138 100 -182 62
-41 194 -41 256 0 23 15 54 46 69 69 25 37 28 50 28 128 0 78 -3 91 -28 128
-45 69 -97 96 -186 100 -62 2 -84 -1 -118 -19z m7 -104 l2 30 8 -30 8 -30 2
30 2 30 8 -30 8 -30 1 28 1 28 88 -3 87 -3 3 -34 3 -33 -48 6 c-65 9 -89 9
-150 1 l-53 -8 0 30 c0 41 14 51 21 16 l7 -28 2 30z m140 -64 c16 -31 12 -49
-15 -67 -46 -30 -95 13 -72 64 13 29 71 31 87 3z m-110 -24 c0 -37 27 -67 62
-67 40 0 68 25 68 62 0 25 4 28 30 28 l31 0 -3 -77 -3 -78 -120 0 -120 0 -3
78 -3 77 31 0 c25 0 30 -4 30 -23z"/>
<path d="M294 335 c-4 -9 -2 -21 4 -27 15 -15 44 -1 40 19 -4 23 -36 29 -44 8z"/>
<path d="M200 260 c-16 -30 -6 -50 25 -50 29 0 43 25 28 49 -15 24 -40 25 -53
1z"/>
</g>
</svg>
